<?xml version='1.0' encoding='utf-8'?>
<svg xmlns="http://www.w3.org/2000/svg" enable-background="new 0 0 550 315" viewBox="0 0 550 315"> <g fill-rule="evenodd"> <path d="m467,33c-1.11,3.223-5.503,3.164-10,3 .34-3.787 8-4.025 10-3z" fill="#387c2b"/> <path d="m436,39c2.09-.423 2.648.686 4,1-1.905,4.095-5.56,6.441-6,12-1.16-.839-2.681-1.319-5-1 3.31-3.022 6.55-6.12 7-12z" fill="#387c2b"/> <path d="m418 50c-8.287 4.91-5.732 22.24-3 28-9.98-2.652-12.55-29.708 3-28z" fill="#49a942"/> <path d="m424 52c-5.378 4.205-5.375 17.141-5 24-5.45-4.709-4.68-24.905 5-24z" fill="#387c2b"/> <path d="m151,81c2.359,8.628.721,19.188 0,28-1.714,20.949 1.621,45.479-9,57-.49-23.93 5.01-58.91 9-85z" fill="#49a942"/> <path d="m212,86c1.172.162.843,1.823 1,3-19.361,25.972-37.145,53.521-60,76 11.04-34.96 35.98-56.02 59-79z" fill="#49a942"/> <path d="m514,91c-.409,6.643-4.918,12.658-2,17 9.662-.671 6.917-13.75 17-14 .521,10.854-9.462,11.205-11,20 5.199-.134 6.834-3.833 13-3 1.54,7.354-6.446,5.417-10,7-6.567,2.925-11.415,9.112-18,11-1.553,4.219 5.553-.219 4,4-2.877,1.68-7.419,2.801-11,1-5.355-9.312-4.976-24.357-18-26 5.034-9.375 15.198,1.001 20,4 12.16-.17 4.15-20.519 16-21zm-13,34c1.302-5.698 5.312-8.688 12-9-1.68-7.49-15.76,2.31-12,9z" fill="#fff"/> <path d="m260,98c5.26,3.406 11.202,6.132 15,11-1.537,6.796-11.786,4.881-18,7-.42-8.15 5.74-10.2 3-18z" fill="#ec83b5"/> <path d="m443 100c-14.771 4.229-32.746 5.253-41 16 3.74-11.26 23.39-15.28 41-16z"/> <path d="m305 123c-6.854-1.812-10.94-6.393-17-9 2.312-7.688 15.367-4.633 20-10 3.16 2.74-3.86 11.96-3 19z" fill="#ec83b5"/> <path d="m443,112c-1.912-1.421-2.868-3.799-6-4-4.701.298-5.906,4.094-8,7-3.54-8.01 16.96-14.57 14-3z"/> <path d="m286,109c.319,2.319-.161,3.839-1,5-2.396-.605-4.562-1.438-8-1 .14-4.19 4.58-4.08 9-4z" fill="#ec83b5"/> <path d="m417 118c-2.718-3.49-9.643-4.109-11 1-4.09-5.36 12.77-11.96 11-1z"/> <path d="m513,116c-6.688.312-10.698,3.302-12,9-3.76-6.69 10.32-16.49 12-9z"/> <path d="m449,134c-6.006,1.713-11.32,2.163-18,1-1.123-7.94-.739-14.705 4-19 10.06.6 12.29,9.05 14,18zm-16-1c6.144,1.811 2.109-6.557 9-4-1.887-3.976-4.855-2.994-3-9-1.891.224-2.206-1.127-4-1-2.14,3.19-2.2,8.46-2,14z"/> <path d="m324,186c-4.872-.872-6.633,1.367-10,2 2.473,2.429.929,6.71 0,11 4.519,1.435 7.774-.655 12,2 1.246,21.128-3.452,39.899-15,52-11.193,11.73-41.175,24.036-56,6 3.999.332 5.551-1.782 10-1v-8c-3.882-3.672-17.065-2.583-20,1-15.47-13.171-.397-35.336-3-54-1.289-9.242-9.378-19.066-10-30-.665-11.677 1.583-20.895 10-29 4.413-.413 7.729.271 10,2 .047-5.047-3.441-6.559-9-6 35.06-37.635 85.14,4.58 81,52zm-58-47c4.238-5.769 15.044-6.253 19,0 .76-11.47-21.73-7.04-19,0zm5,8c-1.891.224-2.207-1.127-4-1 1.744,4.521.675,4.176-2,5 4.529,2.471 3.589,10.411 5,16 4.245-2.321 7.665.567 13,0 5.369-8.861-1.188-19.989-5-26 .007,5.787-4.017-2.836-5,1 2.448.111.212,3.306-1,3-.111-.795-3.306-3.031-3-1 1.41.26 1.14,2.19 2,3zm-31-2c-.483,3.15 3.069,2.264 2,6-1.78.598-4.153-2.931-5,0 2.786,1.088 1.645,5.522-1,3 2.445,5.888 6.268,10.398 6,19 5.323-1.011 10.162-2.505 15-4 1.419-11.085-4.715-14.619-5-24-3.287,2.667-3.366.547-7-1 .87,5.37-3.32,1.62-5,1zm67,13c.801-3.967 3.482-7.594 1-12-3.581-2.61-7.772,1.607-11-1 3.6,4.07 8.12,7.21 10,13zm-52,24c.319,3.381 8.191,6.329 10,2-2.245-1.422-6.589-.744-7-4 1.543-.239 4.792-3.718 2-5-.94,3.06-4.87,3.13-5,7zm42,7c-2.671-5.696 3.447-11.2 7-14-5.891,1.776-12.403,2.931-13,10 1.28,1.45 4.85,5.73 6,4zm-37,23c13.27,1.264 14.636-14.689 16-22-2.723,4.169-11.394-4.042-14,3-.683-2.984-3.981-3.352-8-3 2.88,6.45.31,18.36 6,22zm43,19c.553-6.114 7.188-6.146 6-14-2.78-1.258-8.396-4.886-10-4 5.63,3.17 2.45,12.89 4,18zm-45,8c3.442-5.891 10.096-8.57 18-10-4.37-.963-7.043-3.624-13-3-1.81,3.55-5.99,9.98-5,13zm29,20c1.399-3.601 7.973-2.027 10-5 1.126-6.459-3.708-6.959-6-10 2.13,7.82-4.92,11.72-4,15z" fill="#a28800"/> <path d="m435,119c1.794-.127 2.109,1.224 4,1-1.855,6.006 1.113,5.024 3,9-6.891-2.557-2.856,5.811-9,4-.2-5.54-.14-10.81 2-14z" fill="#fff"/> <path d="m418,145c-5.002-.636-7.585-3.296-11-3-2.188-9.324-.89-20.054 6-20 7.72.06 11.34,16.23 5,23zm-10-6c2.487-.154 3.096,1.571 5,2-1.631-5.297 3.023-4.31 5-6-3.397-1.726-4.428-3.598-3-8-6.94-4.26-7.76,5.32-7,12z"/> <path d="m415,127c-1.428,4.402-.397,6.274 3,8-1.977,1.69-6.631.703-5,6-1.904-.429-2.513-2.154-5-2-.76-6.68.06-16.26 7-12z" fill="#fff"/> <path d="m285 139c-3.956-6.253-14.762-5.769-19 0-2.73-7.04 19.76-11.47 19 0z"/> <path d="m46,158c4.328.309 6.836-9.815 8-16 11.356,3.78-2.333,17.467 1,26 9.051-.397 7.148-16.696 18-12-9.608,5.059-3.057,26.276-14,30-.22,3.22 1.769,4.231 1,8-3.073,2.873-17.166,6.292-17-2 2.347-2.362 4.913.162 8,0-11.217-10.783-21.74-22.261-21-45 8.437,1.563 4.284,15.716 9,21 7.882-.683 15.163,4.661 15,15 5.103-12.412-6.529-19.907-15-19 2.087-7.931.555-16.941-1-26 8.984-.31 9.586,13.06 8,20z" fill="#fff"/> <path d="m502,138c-3.146,17.522-15.959,30.705-34,30-.94-6.194 6.195-4.621 9-6 8.768-4.312 16.087-10.679 20-21-.282-1.615.945-1.722 1-3h4z" fill="#ffd457"/> <path d="m245,144c3.634,1.547 3.713,3.667 7,1 .285,9.381 6.419,12.915 5,24-4.838,1.495-9.677,2.989-15,4 .268-8.602-3.555-13.112-6-19 2.645,2.522 3.786-1.912 1-3 .847-2.931 3.22.598 5,0 1.069-3.736-2.483-2.85-2-6 1.68.62 5.87,4.37 5-1zm2,26c2.536-2.13 2.025-7.308 7-7-6.151-.896-6.227-4.026-4-9-7.12.15-9.63,13.17-3,16z"/> <path d="m436,145c2.806,11.948-13.857,17.208-19,9 .41-8.92 9.33-9.34 19-9zm-16,8c5.058,1.331 11.346-.133 13-5-4.9.13-10.79-2.73-13,5z"/> <path d="m433 148c-1.654 4.867-7.942 6.331-13 5 2.21-7.73 8.1-4.87 13-5z" fill="#bc8d0a"/> <path d="m277,151c4.671.068-1.171,2.286-1,4 .785,2.215 6.19-.19 5,4-4.292-.958-5.958.708-5,5h-4c-.85-6.85.73-11.27 5-13z" fill="#fff"/> <path d="m250,154c-2.227,4.974-2.151,8.104 4,9-4.975-.308-4.464,4.87-7,7-6.63-2.83-4.12-15.85 3-16z" fill="#fff"/> <path d="m134,163c2.933,1.733 4.644,4.689 5,9 6.798,1.132 5.968-5.365 11-6v5c4.078-.256 4.939-3.728 10-3-10.254,9.188-13.678,35.219-5,49-1.498,1.502-3.008,2.992-5,4 1.828,2.371 2.61,5.783 1,9 5.044.711 5.591-3.075 11-2 .56,1.44 1.56,2.44 3,3-1.225,12.465-9.549,26.274 1,36-2.408,1.926-3.319,5.348-6,7-3.135.468-2.819-2.515-4-4l-12,6c-.893,3.817 1.633,6.383 0,8-5.003,2.029-12.709.732-18,0-.725-3.059 1.725-2.941 1-6-11.728,10.188-39.131,6.806-41-10-2.964,1.453 1.317,3.9 0,7-35.816-6.237-17.108-63.543 8-67 1.58,7.913-6.259,6.408-7,12 .252,9.855 17.118,18.364 24,9 .758-6.091-3.043-7.623-9-7-.364,4.03 5.785,1.549 5,6-7.77,2.581-16.685-1.844-17-10 4.909-3.485 12.857-.909 16,3 .771-7.104-9.003-3.663-10-9 6.566-1.232 7.803,2.863 11,5 5.649-3.671 7.802-12.781 6-21 13.45-3.99 22.65-17.21 21-33zm-17,47c2.603,6.397 6.624,11.376 14,13 17.91-16.14-5.16-34.72-14-13zm-1,29c-15.15,3.297-27.687-4.176-36-11 4.219,5.114 7.049,11.618 7,21 10.332,9.73 24.515-.776 32-6 2.554,2.377 13.009,3.797 14-1-6.68,1.732-14.364-5.817-12-13-2.79,2.21-3.66,6.34-5,10zm-8,14c-8.783,4.632-19.976,6.638-26-2-.202,14.89 22.51,10.65 26,2z" fill="#f0f0d8"/> <path d="m441,171c5.451,2.141-3.196,10.789-7,7-.127-1.794 1.225-2.109 1-4 4.07,2.55 4.66,1.37 6-3z" fill="#ee3224"/> <path d="m461,175c-2.979-.405-12.901.969-11-1 1.65-.92 11.01-2.86 11,1z"/> <path d="m260,175c2.792,1.282-.457,4.761-2,5 .411,3.256 4.755,2.578 7,4-1.809,4.329-9.681,1.381-10-2 .13-3.87 4.06-3.94 5-7z"/> <path d="m407,177c.891.443 1.789.878 2,2-10.834,12.121-7.601,19.43 3,30-21.62.3-19.33-25.94-5-32z" fill="#ffd457"/> <path d="m429 178c-2.232 2.768-5.575 4.425-10 5 2.79-2.21 5.23-4.77 10-5z"/> <path d="m445,179c4.532,5.082-4.863,12.072-14,10 .483-3.149-3.069-2.264-2-6 5.3,5.35 13.19,1.41 16-4z"/> <path d="m254,190c4.019-.352 7.317.016 8,3 2.606-7.042 11.277,1.169 14-3-1.364,7.311-2.73,23.264-16,22-5.69-3.64-3.12-15.55-6-22zm4,14c6.246,3.019 11.101-1.597 12-7-3.77.787-8.47,1.75-12,0v7z" fill="#ee3224"/> <path d="m346,207c-7.361-6.415-15.885-16.147-29-11-.132-2.465-.151-4.818 1-6 14.45.55 25.84,4.16 28,17z" fill="#c2a204"/> <path d="m258,197c3.53,1.75 8.23.787 12,0-.899,5.403-5.754,10.019-12,7v-7z" fill="#fff"/> <path d="m109,199c-2.166,3.645-5.488,4.443-2,9-2.615-.282-4.301.365-4,3-1.182-1.151-3.535-1.132-6-1-.713-7.9 5.27-13.82 12-11z" fill="#fff"/> <path d="m131,223c-7.376-1.624-11.397-6.603-14-13 8.84-21.72 31.91-3.14 14,13zm-12-11c1.837,1.497 2.493,4.174 5,5-.698-3.698 1.582-4.418 5-4-2.731-5.714 1.988-4.732 3-9-5.54-5.33-10.69,3.79-13,8z"/> <path d="m57,201c-2.361,8.518 2.778,17.773 10,20-5.723,10.439-18.894-7.023-18-19 1.454-1.55 5.119-.88 8-1z" fill="#49a942"/> <path d="m132,204c-1.012,4.268-5.731,3.286-3,9-3.418-.418-5.698.302-5,4-2.507-.826-3.163-3.503-5-5 2.31-4.21 7.46-13.33 13-8z" fill="#fff"/> <path d="m352,209c-.937,4.729-7.531,3.803-11,6-.03-5.33 6.42-8.5 11-6z" fill="#fff"/> <path d="m415,212c.544,1.325 4.565,6.877 0,7 12.122,13.111-19.379,28.136-25,12 3.275-4.194 8.571-.449 11,2 2.756-5.911 4.329-13.004 12-14-2.938-3.415-8.856,2.455-11,0-1.78-8.45 6.38-6.96 13-7z" fill="#fff"/> <path d="m354,214c.443,3.763-1.586,7.188 2,11-4.449,3.584-11.131,1.521-13-3 .798-1.868 1.671-3.662 2-6 3.41-.25 4.8-2.53 9-2z" fill="#fff"/> <path d="m178,221v10h-7c1.692-8.783-12.31-6.371-16-4-2.251-.415.15-5.483-3-5 5.19-4.16 20.26-6.26 26-1z" fill="#49a942"/> <path d="m400,223c-.521,1.479-1.479,2.521-2,4-3.38-.49-1.94-5.23 2-4z" fill="#fff"/> <path d="m269,228c-1.506,1.419-4.314,3.701-6,2 .55-2.37 3.87-4.15 6-2z" fill="#fff"/> <path d="m360,227c-.826,2.826 1.409,2.591 1,5-9.833-.833-16.66,1.34-25,2 1.58-13.9 16.04,1.59 24-7z" fill="#ec83b5"/> <path d="m468,232c5.801,12.866 10.978,26.355 20,36 12.265,1.834 13.691-12.177 22-11-3.622,7.904-13.667,18.438-21,18-9.39-.56-21.63-25.56-21-43z" fill="#ffd457"/> <path d="m181,234c-3.766,6.962 3.872,6.889 2,17 3.167-.499 4.087-3.246 5-6 3.817-.484 6.383.284 8,2 1.451,19.247-39.068,19.18-31,0 1.38-3.281 5.986-4.355 10-7-2.002-3.229-6.241,2.731-8,0 .19-6.04 8.65-8.36 14-6z" fill="#fff"/> <path d="m230,233c2.694,3.639 2.88,9.786 4,15-4.9,3.528-15.253,4.017-15-5 1.566,2.434 3.98,4.02 8,4-.276-4.057-3.18-5.486-2-11 1.18-1.48 3.78-1.56 5-3z" fill="#fff"/> <path d="m361,235c2.048,3.946 1.934,6.552-1,9-3.869.869-3.558-2.442-6-3-1.354,3.312-3.584,5.749-8,6-1.117-1.55-3.251-2.083-3-5-1.417,3.819-6.05,6.661-11,4 .5-12.83 16.58-10.09 29-11z" fill="#f9c6dc"/> <path d="m460,235c-1.724,5.379-10.779.58-16,4 3.26-3.4 8.71-4.62 16-4z"/> <path d="m527 238c9.029-4.013 10.801 7.854 12 15-7.2-1.8-4.96-13.04-12-15z" fill="#a28800"/> <path d="m89 238c5.845 2.822 11.83 5.504 21 5-4.2 6.16-22.081 5.62-21-5z" fill="#fff"/> <path d="m432,238c2.306-.306 1.111,2.889 3,3-8.283,6.604-17.07,12.859-23,23-3.085,5.275-3.126,14.055-10,17 3.53-20.8 16.94-31.73 30-43z" fill="#ffd457"/> <path d="m524 259c-4.576 3.113-2.089-11.535-7-14 7.833-17.649 22.988 13.063 25 25 2.459 14.586-20.076 20.746-23 6-1.25-6.31 3.52-11.11 5-17z" fill="#a28800"/> <path d="m362 246c-1.221 11.092-20.682 13.078-27 5 9.2-3.89 15.8-3.62 27-5z" fill="#ec83b5"/> <path d="m510,248c5.501-.183 10.55,13.384 3,14 2.484-4.578-.638-8.367-5-9 1.02-1.31.98-3.69 2-5z" fill="#a28800"/> <path d="m82 251c6.024 8.638 17.217 6.632 26 2-3.49 8.65-26.202 12.89-26-2z"/> <path d="m263 253c1.045 5.712-7.435 1.898-11 3-11.726 2.414-15.322 16.687-16 27-8.07-17.81 9.83-37.43 27-30z" fill="#c2a204"/> <path d="m335,274c-1.012,3.322-7.278,1.389-9,4 4.237,8.565 8.355,23.011-3,27-.281-5.263 1.057-5.929 0-10-1.372-3.294-5.291-4.042-9-5 .37-6.37-1.927-10.073-8-10 1.9-12.54 18.95-8.58 29-6z" fill="#ec83b5"/> <path d="m71,277c-5.868,1.799-7.883,7.45-10,13-3.146.479-3.909-1.424-6-2 .25-8.33 11.869-21.91 16-11z" fill="#49a942"/> <path d="m154 273c1.48 5.703 6.616 12.468 7 16-8.186 2.986-11.68-5.935-15-11 1.81-2.52 6.19-2.48 8-5z" fill="#49a942"/> <path d="m207,275c9.362,6.679 23.075,14.401 35,10 5.793,9.451-5.038,15.14-10,20-4.021.582.497-2.96-1-6-15.23,1.26-27.12-4.21-24-24z" fill="#ec83b5"/> <path d="m390,291c5.2.866 4.168-4.498 6-7 6.027.64 13.572-.239 12,8-4.981-.353-7.32-3.346-13-3 2.208,3.125 7.869,2.798 11,5 1.348,3.02 1.348,7.98 0,11h-30c-9.276-6.425-11.954-34.651 9-30 3.67,3.33 5.93,8.07 5,16z" fill="#a28800"/> <path d="m46,298c3.994.327 2.11-5.224 4-7 5.365.969 13.141-.474 13,6-3.592,2.613-8.906.037-12-1 .326,5.341 7.775,3.558 11,6-3.095,8.572-21.456,1.878-31,4-.162-1.172-1.823-.844-3-1-4.148-6.263-10.146-10.954-8-20 3.637-15.33 32.747-8.52 26,13z" fill="#766100"/> <path d="m171,288c.859,6.778-7.585,8.734-12,7 3.39-2.53 6.58-9.74 12-7z" fill="#766100"/> <path d="m175,290c4.784,1.136 4.864,11.456 3,16h-37c-1.075-13.422 19.513-9.728 23-3 1.877-1.907-.593-1.81 0-5 5.85-.48 8.27-4.4 11-8z" fill="#766100"/> <path d="m460,0h4v1c6.79.21 9.814,4.186 10,11 9.043.042 12.064,7.401 10,14-1.153,3.685-6.762,2.409-9,6-3.097,4.967 2.438,7.869-2,10-9.273,4.022-17.824.867-26,6-5.957,3.74-8.146,13.616-20,7-4.257,2.621-6.842,10.398-4,17 42.874,1.146 43.833,49.475 46,88 12.388-3.069 24.522-10.837 25-23 .362-9.241-9.068-13.101-9-23-4.156-1.177-8.188-2.478-9-7 4.947-11.81 18.61-4.463 24,2 6.29-5.377 2.46-20.874 13-22 7.734,3.043 2.043,13.146 0,18 8.475-2.192 5.687-15.646 18-14 7.936,7.833-8.393,15.085-5,18 4.688-.022 10.21-.876 10,4-3.241,9.437-12.784,5.625-19,10-6.715,4.726-8.008,14.477-12,24-6.112,14.579-17.777,22.048-35,26 2.255,15.744.271,34.585-1,50 6.36,14.306 13.122,28.211 21,41 14.644-3.082 22.738-38.143 44-31 7.167,2.407 9.664,16.863 7,25 2.609,6.391 6.043,11.957 5,22-8.107,16.02-39.323,11.065-30-14-15.013-.026-16.31,18.044-31,14-8.787-2.419-9.023-16.572-16-23-1.058,7.942-.787,17.213-8,19-13.529-4.137-16.715-18.619-24-29-11.077,7.226-26.771,18.572-27,34-.056,3.745 2.436,5.862 3,9 .369,2.054-1.987,2.174-2,4-.013,1.746 4.46,6.96 2,11h137v10h-550v-9c4.398-.831 10.366-1.093 20-1-19.851-21.628 21.404-51.228 30-18 1.867-8.8 7.841-13.492 13-19-5.541-9.958-6.365-27.193-1-38-8.528-5.472-17.171-10.829-16-26-1.333-3.334-5.039-4.294-6-8 .721-17.075-20.219-25.506-12-50 3.14-2.64 6.935.47 9,2-.945-4.667-3.438-10.452 0-14 8.771-1.104 9.16,6.173 13,10 1.892-1.442.228-6.438 4-6 11.302,1.819 7.22,15.513 4,23 1.401-3.619 13.651-16.536 19-5-1.046,4.621-5.271,6.062-7,10 4.011,12.493-4.761,15.438-7,22-1.378,4.039.994,9.924-4,13-.181,8.515 4.69,11.977 10,15 9.566-3.101 13.299-12.034 25-13 1.646-2.688 3.136-5.531 5-8 22.999-.335 29.931-16.736 32-38h5c2.555-33.445 9.697-62.303 16-92 5.704,3.296 3.515,14.485 4,23 1.667-1.333 1.553-4.447 3-6 4.491,3.843 2.61,14.056 3,22 9.386-7.953 16.207-32.455 28-38-.721,20.613-9.986,32.681-14,50 11.702-11.3 24.224-30.441 44-37-4.65,18.016-17.166,28.167-25,43 4.23-1.77 9.636-2.364 15-3-14.319,16.348-34.594,26.739-48,44-.265,3.265 3.88,2.12 4,5-7.185,10.33-13.845,30.11-8,47 8.547-2.063 21.018-1.601 25,4-1.514,10.358 6.102,13.546 2,22 28.917.784 9.702,29.536-11,26-4.184,4.482-5.558,11.775-10,16 12.932.896 25.003,7.443 21,22 11.177.504 34.469,4.474 41-3-18.337,3.943-29.335-14.417-22-33 6.855,3.575 14.508,11.36 23,10 2.421-10.246 5.914-19.42 12-26-19.863,7.113-31.628-9.146-16-22-19.414-10.507-7.07-38.354 9-44-14.473-25.842-2.032-60.461 21-69 1.354-8.646 3.911-16.089 6-24 6.794,3.206 13.757,6.243 18,12 4.122-5.654 8.38,3.234 11,3 1.861-.167 5.213-5.036 8-6 5.799-2.005 10.748-.27 16-1-.449,5.66-1.721,17.958-5,24 10.996,16.337 23.952,30.715 22,60 12.054,5.946 22.447,13.553 27,27 1.413,1.921 4.857,1.81 7,3 .739,18.969 9.54,48.676-22,44-13.835-9.921-13.942-26.589-1-36-1.156-5.365-2.892-11.382-1-17-1.251-4.415-5.941-5.392-9-8 5.682,41.858-14.874,64.758-43,76 .019,7.981 5.716,10.284 13,11 2.371-17.44 22.198-23.378 38-14 1.255,5.922-2.609,6.724-7,7 5.748,8.421 6.078,19.821-2,26h40c-7.062-6.095-9.41-31.949 5-35 12.802-1.802 18.958,3.042 22,11 7.855-19.478 18.104-36.562 35-47-6.131-15.536-13.768-29.566-19-46-5.287-.287-4.799,5.201-8,7 7.927,3.74 10.993,12.34 17,18 .022,9.782 3.348,12.637 1,19-8.556,23.19-52.39,2.607-25-11-.712-6.046 1.576-9.09 5-11-18.368-7.073-8.09-30.406 4-37-7.774-25.347-31.952-81.098 2-95-10.951-12.757-1.528-22.607 2-38 6.452-2.215 9.435-7.898 11-15 3.044-.956 4.023-3.977 9-3-.95-18.283 20.72-13.946 30-22zm-11,34c-3.922,1.276-3.353-2.737-2-4-2.631,1.036-6.137,1.197-10,1-.679-3.654-1.396-7.271-1-12 4.178-3.938 12.937-3.771 16,1 .851-4.483 3.517-7.15 8-8 4.069,2.931 8.134,5.866 12,9-2.134,1.2-5.446,1.22-6,4 4.833-.167 7.796-2.205 12-3 .052-5.385-3.173-7.494-9-7 3.082-15.188-18.138-10.94-22-2-2.492-.841-5.357-1.309-9-1-3.998,5.335-1.548,17.119-14,14-2.004,2.127-3.098,8.925-1,12-4.41,2.59-12.417,1.583-11,10 6.77-1.002 5.5-1.708 12,0 1.032-3.967 1.057-8.944 6-9-2.555-.112-1.984-3.349-2-6 7.09-7.227 15.54,6.915 21,1zm8,2c4.497.164 8.89.223 10-3-2-1.025-9.66-.787-10,3zm-28,15c2.319-.319 3.84.161 5,1 .44-5.559 4.095-7.905 6-12-1.352-.314-1.91-1.423-4-1-.45,5.88-3.69,8.978-7,12zm-14,27c-2.732-5.76-5.287-23.09 3-28-15.55-1.708-12.98,25.348-3,28zm4-2c-.375-6.859-.378-19.795 5-24-9.68-.905-10.45,19.291-5,24zm2,2c-2.653.214-13.318,3.198-18,7-15.639,12.703-1.914,47.57 3,65 10.599,37.594 25.096,75.073 42,105 3.507,6.209 7.097,15.427 15,15 .259-32.809 7.133-86.008-1-108 4.513-6.544.174-23.909-1-34-2.391-.609-7.256,1.255-8-1 1.776-3.456 7.327,2.658 7-2-4.01-22.85-13.96-49.023-39-47zm-269,82c11.632-25.702 25.405-54.594 32-82-13.18,22.75-34.58,49.99-32,82zm-10,6c10.621-11.521 7.286-36.051 9-57 .721-8.812 2.359-19.372 0-28-3.99,26.09-9.49,61.07-9,85zm11-1c22.855-22.479 40.639-50.028 60-76-.157-1.177.172-2.838-1-3-23.02,22.98-47.96,44.04-59,79zm345-53c-4.802-2.999-14.966-13.375-20-4 13.024,1.643 12.645,16.688 18,26 3.581,1.801 8.123.68 11-1 1.553-4.219-5.553.219-4-4 6.585-1.888 11.433-8.075 18-11 3.554-1.583 11.54.354 10-7-6.166-.833-7.801,2.866-13,3 1.538-8.795 11.521-9.146 11-20-10.083.25-7.338,13.329-17,14-2.918-4.342 1.591-10.357 2-17-11.85.481-3.84,20.83-16,21zm-241,4c6.214-2.119 16.463-.204 18-7-3.798-4.868-9.74-7.594-15-11 2.74,7.8-3.42,9.85-3,18zm51-12c-4.633,5.367-17.688,2.312-20,10 6.06,2.607 10.146,7.188 17,9-.86-7.04 6.16-16.26 3-19zm-31,9c3.438-.438 5.604.395 8,1 .839-1.161 1.319-2.681 1-5-4.42-.08-8.86-.19-9,4zm-34,21c5.559-.559 9.047.953 9,6-2.271-1.729-5.587-2.413-10-2-8.417,8.105-10.665,17.323-10,29 .622,10.934 8.711,20.758 10,30 2.603,18.664-12.47,40.829 3,54 2.935-3.583 16.118-4.672 20-1v8c-4.449-.782-6.001,1.332-10,1 14.825,18.036 44.807,5.73 56-6 11.548-12.101 16.246-30.872 15-52-4.226-2.655-7.481-.565-12-2 .929-4.29 2.473-8.571 0-11 3.367-.633 5.128-2.872 10-2 4.14-47.42-45.94-89.635-81-52zm-205,4c1.555,9.059 3.087,18.069 1,26 8.471-.907 20.103,6.588 15,19 .163-10.339-7.118-15.683-15-15-4.716-5.284-.563-19.437-9-21-.74,22.739 9.783,34.217 21,45-3.087.162-5.653-2.362-8,0-.166,8.292 13.927,4.873 17,2 .769-3.769-1.22-4.78-1-8 10.943-3.724 4.392-24.941 14-30-10.852-4.696-8.949,11.603-18,12-3.333-8.533 10.356-22.22-1-26-1.164,6.185-3.672,16.309-8,16 1.586-6.94.984-20.31-8-20zm460,0c-.055,1.278-1.282,1.385-1,3-3.913,10.321-11.232,16.688-20,21-2.805,1.379-9.94-.194-9,6 18.041.705 30.854-12.478 34-30h-4zm-385,58c1.802,8.219-.351,17.329-6,21-3.197-2.137-4.434-6.232-11-5 .997,5.337 10.771,1.896 10,9-3.143-3.909-11.091-6.485-16-3 .315,8.156 9.23,12.581 17,10 .785-4.451-5.364-1.97-5-6 5.957-.623 9.758.909 9,7-6.882,9.364-23.748.855-24-9 .741-5.592 8.58-4.087 7-12-25.108,3.457-43.816,60.763-8,67 1.317-3.1-2.964-5.547 0-7 1.869,16.806 29.272,20.188 41,10 .725,3.059-1.725,2.941-1,6 5.291.732 12.997,2.029 18,0 1.633-1.617-.893-4.183 0-8l12-6c1.181,1.485.865,4.468 4,4 2.681-1.652 3.592-5.074 6-7-10.549-9.726-2.225-23.535-1-36-1.44-.56-2.44-1.56-3-3-5.409-1.075-5.956,2.711-11,2 1.61-3.217.828-6.629-1-9 1.992-1.008 3.502-2.498 5-4-8.678-13.781-5.254-39.812 5-49-5.061-.728-5.922,2.744-10,3v-5c-5.032.635-4.202,7.132-11,6-.356-4.311-2.067-7.267-5-9 1.65,15.79-7.55,29.01-21,33zm299,13c-10.601-10.57-13.834-17.879-3-30-.211-1.122-1.109-1.557-2-2-14.33,6.06-16.62,32.3 5,32zm-94-19c-1.151,1.182-1.132,3.535-1,6 13.115-5.147 21.639,4.585 29,11-2.16-12.84-13.55-16.45-28-17zm-86,34c-.427-11.094 5.456-15.878 5-27-11.96-.32-21.76,28.08-5,27zm-135-14c2.465-.132 4.818-.151 6,1-.301-2.635 1.385-3.282 4-3-3.488-4.557-.166-5.355 2-9-6.73-2.82-12.713,3.1-12,11zm-48-8c-.894,11.977 12.277,29.439 18,19-7.222-2.227-12.361-11.482-10-20-2.881.12-6.546-.55-8,1zm292,13c3.469-2.197 10.063-1.271 11-6-4.58-2.5-11.03.67-11,6zm61,4c2.144,2.455 8.062-3.415 11,0-7.671.996-9.244,8.089-12,14-2.429-2.449-7.725-6.194-11-2 5.621,16.136 37.122,1.111 25-12 4.565-.123.544-5.675 0-7-6.62.04-14.78-1.45-13,7zm-57-3c-.329,2.338-1.202,4.132-2,6 1.869,4.521 8.551,6.584 13,3-3.586-3.812-1.557-7.237-2-11-4.2-.53-5.59,1.75-9,2zm-193,6c3.15-.483.749,4.585 3,5 3.69-2.371 17.692-4.783 16,4h7v-10c-5.74-5.26-20.81-3.16-26,1zm246,5c.521-1.479 1.479-2.521 2-4-3.94-1.23-5.38,3.51-2,4zm-62,7c8.34-.66 15.167-2.833 25-2 .409-2.409-1.826-2.174-1-5-7.96,8.59-22.42-6.9-24,7zm153,41c7.333.438 17.378-10.096 21-18-8.309-1.177-9.735,12.834-22,11-9.022-9.645-14.199-23.134-20-36-.63,17.44 11.61,42.44 21,43zm-322-35c1.759,2.731 5.998-3.229 8,0-4.014,2.645-8.62,3.719-10,7-8.068,19.18 32.451,19.247 31,0-1.617-1.716-4.183-2.484-8-2-.913,2.754-1.833,5.501-5,6 1.872-10.111-5.766-10.038-2-17-5.35-2.36-13.81-.04-14,6zm58-4c-1.18,5.514 1.724,6.943 2,11-4.02.02-6.434-1.566-8-4-.253,9.017 10.1,8.528 15,5-1.12-5.214-1.306-11.361-4-15-1.22,1.44-3.82,1.52-5,3zm107,10c4.95,2.661 9.583-.181 11-4-.251,2.917 1.883,3.45 3,5 4.416-.251 6.646-2.688 8-6 2.442.558 2.131,3.869 6,3 2.934-2.448 3.048-5.054 1-9-12.42.91-28.5-1.83-29,11zm207,7c-1.199-7.146-2.971-19.013-12-15 7.04,1.96 4.8,13.2 12,15zm-137,28c6.874-2.945 6.915-11.725 10-17 5.93-10.141 14.717-16.396 23-23-1.889-.111-.694-3.306-3-3-13.06,11.27-26.47,22.2-30,43zm117-5c2.924,14.746 25.459,8.586 23-6-2.012-11.937-17.167-42.649-25-25 4.911,2.465 2.424,17.113 7,14-1.48,5.89-6.25,10.69-5,17zm-184-25c6.318,8.078 25.779,6.092 27-5-11.2,1.38-17.8,1.11-27,5zm173,2c4.362.633 7.484,4.422 5,9 7.55-.616 2.501-14.183-3-14-1.02,1.31-.98,3.69-2,5zm-272,30c.678-10.313 4.274-24.586 16-27 3.565-1.102 12.045,2.712 11-3-17.17-7.43-35.07,12.19-27,30zm10-20c-10.164,9.179 3.813,22.315 2,31-1.207,5.778-11.46,7.068-9,11 20.277.339 51.742-.227 78,0 5.025-17.528-13.404-9.827-25-12-9.894-1.854-15.28-8.571-17-18-13.58-.09-18.72-8.61-29-12zm60,17c6.073-.073 8.37,3.63 8,10 3.709.958 7.628,1.706 9,5 1.057,4.071-.281,4.737 0,10 11.355-3.989 7.237-18.435 3-27 1.722-2.611 7.988-.678 9-4-10.05-2.58-27.1-6.54-29,6zm-251,8c2.091.576 2.854,2.479 6,2 2.117-5.55 4.132-11.201 10-13-4.131-10.91-15.75,2.67-16,11zm91-10c3.32,5.065 6.814,13.986 15,11-.384-3.532-5.52-10.297-7-16-1.81,2.52-6.19,2.48-8,5zm85,21c1.497,3.04-3.021,6.582 1,6 4.962-4.86 15.793-10.549 10-20-11.925,4.401-25.638-3.321-35-10-3.12,19.79 8.77,25.26 24,24zm154-24c-20.954-4.651-18.276,23.575-9,30h30c1.348-3.02 1.348-7.98 0-11-3.131-2.202-8.792-1.875-11-5 5.68-.346 8.019,2.647 13,3 1.572-8.239-5.973-7.36-12-8-1.832,2.502-.8,7.866-6,7 .93-7.93-1.33-12.67-5-16zm-365,10c-2.146,9.046 3.852,13.737 8,20 1.177.156 2.838-.172 3,1 9.544-2.122 27.905,4.572 31-4-3.225-2.442-10.674-.659-11-6 3.094,1.037 8.408,3.613 12,1 .141-6.474-7.635-5.031-13-6-1.89,1.776-.006,7.327-4,7 6.747-21.52-22.363-28.33-26-13zm101,2c-20.299,13.055-44.794-23.605-54,2 4.288,5.484-1.055,9.674 1,16 20.019,2.314 44.319.348 66,1 1.251-9.415 8.873-12.46 17-15-4.31-3.73-22.85,3.78-30-4zm38,8c4.415,1.734 12.859-.222 12-7-5.42-2.74-8.61,4.47-12,7zm5,3c-.593,3.19 1.877,3.093 0,5-3.487-6.728-24.075-10.422-23,3h37c1.864-4.544 1.784-14.864-3-16-2.73,3.6-5.15,7.52-11,8z"/> <path d="m428,33c.016,2.651-.555,5.888 2,6-4.943.056-4.968,5.033-6,9-6.5-1.708-5.23-1.002-12,0-1.417-8.417 6.59-7.41 11-10-2.098-3.075-1.004-9.873 1-12 12.452,3.119 10.002-8.665 14-14 3.643-.309 6.508.159 9,1 3.862-8.94 25.082-13.188 22,2 5.827-.494 9.052,1.615 9,7-4.204.795-7.167,2.833-12,3 .554-2.78 3.866-2.8 6-4-3.866-3.134-7.931-6.069-12-9-4.483.85-7.149,3.517-8,8-3.063-4.771-11.822-4.938-16-1-.396,4.729.321,8.346 1,12 3.863.197 7.369.036 10-1-1.353,1.263-1.922,5.276 2,4-5.46,5.915-13.91-8.227-21-1z" fill="#49a942"/> <path d="m184 78c-6.595 27.406-20.368 56.298-32 82-2.58-32.01 18.82-59.25 32-82z" fill="#49a942"/> <path d="m269,144c-.306-2.031 2.889.205 3,1 1.212.306 3.448-2.889 1-3 .983-3.836 5.007,4.787 5-1 3.812,6.011 10.369,17.139 5,26-5.335.567-8.755-2.321-13,0-1.411-5.589-.471-13.529-5-16 2.675-.824 3.744-.479 2-5 1.793-.127 2.109,1.224 4,1-.86-.81-.59-2.74-2-3zm3,20h4c-.958-4.292.708-5.958 5-5 1.19-4.19-4.215-1.785-5-4-.171-1.714 5.671-3.932 1-4-4.27,1.73-5.85,6.15-5,13z"/> <path d="m420,169c9.312.37 22.096-3.704 25-13-.237-3.096-2.783-3.884-4-6 2.333-.943 9.709,4.625 15,1-.149,4.184-4.484,4.183-7,6 .89,14.217-4.149,26.732-17,24-1.017-3.65-2.48-6.853-4-10-3.82.48-6.38-.28-8-2zm15,5c.225,1.891-1.127,2.206-1,4 3.804,3.789 12.451-4.859 7-7-1.34,4.37-1.93,5.55-6,3z"/> <path d="m291,185c.597-7.069 7.109-8.224 13-10-3.553,2.8-9.671,8.304-7,14-1.15,1.73-4.72-2.55-6-4z"/> <path d="m461 206c-9.115 2.219-21.15 1.516-27 7 1.38-5.38 17.1-10.11 27-7z"/> <path d="m299,213c1.604-.886 7.22,2.742 10,4 1.188,7.854-5.447,7.886-6,14-1.55-5.11 1.63-14.83-4-18z"/> <path d="m263,226c5.957-.624 8.63,2.037 13,3-7.904,1.43-14.558,4.109-18,10-.99-3.02 3.19-9.45 5-13zm0,4c1.686,1.701 4.494-.581 6-2-2.13-2.15-5.45-.37-6,2z"/> <path d="m121,229c-2.364,7.183 5.32,14.732 12,13-.991,4.797-11.446,3.377-14,1-7.485,5.224-21.668,15.73-32,6 .049-9.382-2.781-15.886-7-21 8.313,6.824 20.85,14.297 36,11 1.34-3.66 2.21-7.79 5-10zm-11,14c-9.17.504-15.155-2.178-21-5-1.081,10.62 16.8,11.16 21,5z"/> <path d="m291,244c2.292,3.041 7.126,3.541 6,10-2.027,2.973-8.601,1.399-10,5-.92-3.28 6.13-7.18 4-15z"/> <path d="m460,125c.327,4.658-5.224-1.456-7,2 .744,2.255 5.609.391 8,1 1.174,10.091 5.513,27.456 1,34 8.133,21.992 1.259,75.191 1,108-7.903.427-11.493-8.791-15-15-16.904-29.927-31.401-67.406-42-105-4.914-17.43-18.639-52.297-3-65 4.682-3.802 15.347-6.786 18-7 25.04-2.023 34.99,24.15 39,47zm-58-9c8.254-10.747 26.229-11.771 41-16-17.61.72-37.26,4.74-41,16zm27-1c2.094-2.906 3.299-6.702 8-7 3.132.201 4.088,2.579 6,4 2.96-11.57-17.54-5.01-14,3zm-23,4c1.357-5.109 8.282-4.49 11-1 1.77-10.96-15.09-4.36-11,1zm29-3c-4.739,4.295-5.123,11.06-4,19 6.68,1.163 11.994.713 18-1-1.71-8.95-3.94-17.4-14-18zm-22,6c-6.89-.054-8.188,10.676-6,20 3.415-.296 5.998,2.364 11,3 6.34-6.77 2.72-22.94-5-23zm4,32c5.143,8.208 21.806,2.948 19-9-9.67-.34-18.59.08-19,9zm11,17c1.52,3.147 2.983,6.35 4,10 12.851,2.732 17.89-9.783 17-24 2.516-1.817 6.851-1.816 7-6-5.291,3.625-12.667-1.943-15-1 1.217,2.116 3.763,2.904 4,6-2.904,9.296-15.688,13.37-25,13 1.62,1.72 4.18,2.48 8,2zm22,3c-1.901,1.969 8.021.595 11,1 .01-3.86-9.35-1.92-11-1zm-31,9c4.425-.575 7.768-2.232 10-5-4.77.23-7.21,2.79-10,5zm10,0c-1.069,3.736 2.483,2.851 2,6 9.137,2.072 18.532-4.918 14-10-2.81,5.41-10.7,9.35-16,4zm5,30c5.85-5.484 17.885-4.781 27-7-9.9-3.11-25.62,1.62-27,7zm10,26c5.221-3.42 14.276,1.379 16-4-7.29-.62-12.74.6-16,4z" fill="#fdb913"/> <path d="m297,145c3.228,2.607 7.419-1.61 11,1 2.482,4.406-.199,8.033-1,12-1.88-5.79-6.4-8.93-10-13z"/> </g> </svg>